<svg width="48" height="48" fill="none" xmlns="http://www.w3.org/2000/svg"><path fill-rule="evenodd" clip-rule="evenodd" d="M43.094 7.772 24.719.143a1.875 1.875 0 0 0-1.438 0L4.906 7.773c-.7.29-1.156.973-1.156 1.731v9.274a31.4 31.4 0 0 0 19.541 29.083 1.88 1.88 0 0 0 1.418 0A31.4 31.4 0 0 0 44.25 18.778V9.504c0-.758-.456-1.44-1.156-1.732Zm-21.5 17.825 9.357-9.817a2.105 2.105 0 0 1 3.078 0c.85.892.85 2.338 0 3.23L23.133 30.442a2.105 2.105 0 0 1-3.078 0L13.97 24.06a2.364 2.364 0 0 1 0-3.23 2.105 2.105 0 0 1 3.078 0l4.545 4.768Z" fill="#232ED1"/></svg>