<svg width="40" height="54" fill="none" xmlns="http://www.w3.org/2000/svg"><path d="M32.5 35.584V52.75a1.25 1.25 0 0 1-1.892 1.071L20 47.462l-10.607 6.36A1.251 1.251 0 0 1 7.5 52.748V35.586A19.97 19.97 0 0 1 8.434 3.68a20.01 20.01 0 0 1 23.131 0 19.971 19.971 0 0 1 .934 31.906v-.002ZM20 34.97c3.978 0 7.794-1.579 10.607-4.39a14.983 14.983 0 0 0 0-21.197 15.006 15.006 0 0 0-21.214 0 14.983 14.983 0 0 0 0 21.197A15.006 15.006 0 0 0 20 34.971Zm0-4.996a10.004 10.004 0 0 1-7.071-2.927 9.99 9.99 0 0 1 0-14.131 10.004 10.004 0 0 1 14.142 0 9.99 9.99 0 0 1 0 14.131A10.004 10.004 0 0 1 20 29.975Z" fill="#232ED1"/></svg>