<svg width="54" height="54" fill="none" xmlns="http://www.w3.org/2000/svg"><g clip-path="url(#a)" fill="#F24C27"><path d="M27 0C15.615 0 6.353 9.263 6.353 20.647v19.059a4.77 4.77 0 0 0 4.764 4.765 4.77 4.77 0 0 0 4.765-4.765V23.824a4.77 4.77 0 0 0-4.765-4.765c-.535 0-1.04.108-1.521.271C10.273 10.312 17.812 3.176 27 3.176c9.182 0 16.719 7.129 17.403 16.142a4.678 4.678 0 0 0-1.52-.26 4.77 4.77 0 0 0-4.766 4.766v15.882a4.77 4.77 0 0 0 4.765 4.765 4.7 4.7 0 0 0 1.588-.293v1.88a1.59 1.59 0 0 1-1.588 1.59h-11.41c-.658-1.846-2.405-3.177-4.472-3.177a4.77 4.77 0 0 0-4.765 4.764A4.77 4.77 0 0 0 27 54c2.067 0 3.814-1.332 4.472-3.176h11.41a4.77 4.77 0 0 0 4.765-4.765V20.647C47.647 9.263 38.384 0 27 0Zm23.823 22.528V41C52.668 40.344 54 38.597 54 36.53V27c0-2.068-1.332-3.814-3.177-4.472ZM0 27v9.53c0 2.066 1.332 3.813 3.176 4.47V22.528C1.332 23.186 0 24.932 0 27Z"/></g><defs><clipPath id="a"><path fill="#fff" d="M0 0h54v54H0z"/></clipPath></defs></svg>