<svg width="40" height="54" viewBox="0 0 40 54" fill="none" xmlns="http://www.w3.org/2000/svg">
<path d="M32.5 35.5835V52.7507C32.5 52.9717 32.4414 53.1887 32.3301 53.3797C32.2188 53.5706 32.0587 53.7287 31.8663 53.8376C31.6739 53.9466 31.456 54.0026 31.2348 53.9999C31.0137 53.9972 30.7972 53.936 30.6075 53.8224L20 47.4621L9.3925 53.8224C9.2026 53.9361 8.9859 53.9973 8.76453 53.9999C8.54317 54.0025 8.3251 53.9463 8.13261 53.837C7.94012 53.7278 7.78012 53.5694 7.66897 53.3781C7.55782 53.1868 7.49951 52.9694 7.5 52.7482V35.586C4.26537 32.9981 1.91498 29.4702 0.773648 25.4898C-0.367686 21.5094 -0.24361 17.2731 1.12873 13.3662C2.50107 9.45933 5.05391 6.07484 8.43446 3.68045C11.815 1.28606 15.8564 0 20 0C24.1436 0 28.185 1.28606 31.5655 3.68045C34.9461 6.07484 37.4989 9.45933 38.8713 13.3662C40.2436 17.2731 40.3677 21.5094 39.2264 25.4898C38.085 29.4702 35.7346 32.9981 32.5 35.586V35.5835ZM20 34.9714C23.9782 34.9714 27.7936 33.3922 30.6066 30.5813C33.4196 27.7703 35 23.9579 35 19.9826C35 16.0073 33.4196 12.1948 30.6066 9.3839C27.7936 6.57295 23.9782 4.99377 20 4.99377C16.0218 4.99377 12.2064 6.57295 9.3934 9.3839C6.58035 12.1948 5 16.0073 5 19.9826C5 23.9579 6.58035 27.7703 9.3934 30.5813C12.2064 33.3922 16.0218 34.9714 20 34.9714V34.9714ZM20 29.9751C17.3478 29.9751 14.8043 28.9224 12.9289 27.0484C11.0536 25.1744 10 22.6328 10 19.9826C10 17.3324 11.0536 14.7908 12.9289 12.9168C14.8043 11.0428 17.3478 9.99005 20 9.99005C22.6522 9.99005 25.1957 11.0428 27.0711 12.9168C28.9464 14.7908 30 17.3324 30 19.9826C30 22.6328 28.9464 25.1744 27.0711 27.0484C25.1957 28.9224 22.6522 29.9751 20 29.9751Z" fill="#232ED1"/>
</svg>
