<svg width="54" height="54" viewBox="0 0 54 54" fill="none" xmlns="http://www.w3.org/2000/svg">
<g clip-path="url(#clip0_1_1262)">
<path d="M26.9997 0C15.6152 0 6.35254 9.26271 6.35254 20.6472V39.7057C6.35254 42.3333 8.48993 44.4707 11.1172 44.4707C13.7448 44.4707 15.8822 42.3333 15.8822 39.7057V23.8236C15.8822 21.1963 13.7448 19.0589 11.1172 19.0589C10.5824 19.0589 10.0765 19.1673 9.5957 19.3304C10.2734 10.3116 17.812 3.17642 26.9997 3.17642C36.1825 3.17642 43.719 10.305 44.4029 19.3177C43.925 19.1541 43.4162 19.0589 42.8822 19.0589C40.2546 19.0589 38.1172 21.1963 38.1172 23.8236V39.7057C38.1172 42.3333 40.2546 44.4707 42.8822 44.4707C43.4417 44.4707 43.9711 44.3562 44.4704 44.1782V46.0589C44.4704 46.9352 43.7569 47.6472 42.8822 47.6472H31.4718C30.8139 45.8023 29.0675 44.4707 26.9997 44.4707C24.3725 44.4707 22.2351 46.6081 22.2351 49.2354C22.2351 51.8626 24.3725 54 26.9997 54C29.0675 54 30.8139 52.668 31.4718 50.8236H42.8822C45.5095 50.8236 47.6469 48.6862 47.6469 46.0589C47.6469 36.5058 47.6469 30.2106 47.6469 20.6472C47.6469 9.26271 38.3841 0 26.9997 0V0Z" fill="#F24C27"/>
<path d="M50.8232 22.5278V41.0013C52.6677 40.3438 53.9997 38.5974 53.9997 36.5292V27C53.9997 24.9322 52.6677 23.1858 50.8232 22.5278Z" fill="#F24C27"/>
<path d="M0 27V36.5292C0 38.5974 1.33195 40.3438 3.17642 41.0013V22.5278C1.33195 23.1858 0 24.9322 0 27Z" fill="#F24C27"/>
</g>
<defs>
<clipPath id="clip0_1_1262">
<rect width="54" height="54" fill="white"/>
</clipPath>
</defs>
</svg>
