<svg width="48" height="46" viewBox="0 0 48 46" fill="none" xmlns="http://www.w3.org/2000/svg">
<path d="M0 21.9248H8.43254V45.5359H0V21.9248Z" fill="#F24C27"/>
<path d="M35.4168 45.5357H11.8057V20.5703L16.936 12.8748L18.3611 2.89573C18.4793 2.09343 18.8812 1.36009 19.4939 0.828795C20.1066 0.297495 20.8895 0.00344256 21.7004 0H21.9247C23.2662 0.00133945 24.5523 0.534825 25.5009 1.48338C26.4494 2.43193 26.9829 3.71807 26.9842 5.05952V15.1786H40.4763C42.2648 15.1808 43.9794 15.8923 45.244 17.1569C46.5086 18.4215 47.2201 20.1361 47.2223 21.9246V33.7302C47.2188 36.8601 45.9738 39.8608 43.7606 42.074C41.5474 44.2872 38.5467 45.5321 35.4168 45.5357Z" fill="#F24C27"/>
</svg>
