<svg width="48" height="48" viewBox="0 0 48 48" fill="none" xmlns="http://www.w3.org/2000/svg">
<path fill-rule="evenodd" clip-rule="evenodd" d="M43.094 7.77243L24.719 0.143332C24.2587 -0.0477305 23.7413 -0.0478242 23.281 0.143332L4.90603 7.77243C4.20619 8.06305 3.75 8.7463 3.75 9.50408V18.7783C3.75 31.5483 11.4683 43.0352 23.2914 47.861C23.7456 48.0463 24.2543 48.0463 24.7086 47.861C36.5315 43.0353 44.25 31.5484 44.25 18.7783V9.50408C44.25 8.7463 43.7939 8.06305 43.094 7.77243ZM21.5939 25.5971L30.9506 15.7801C31.8006 14.8882 33.1789 14.8881 34.0291 15.7801C34.8793 16.6721 34.8792 18.1182 34.029 19.0101L23.1332 30.4421C22.2829 31.3343 20.9046 31.3339 20.0547 30.4421L13.971 24.059C13.1208 23.167 13.1208 21.7209 13.971 20.829C14.8211 19.9371 16.1994 19.937 17.0495 20.829L21.5939 25.5971Z" fill="#232ED1"/>
</svg>
