<svg width="32" height="32" viewBox="0 0 32 32" fill="none" xmlns="http://www.w3.org/2000/svg">
<path d="M16.4072 4.94531H30.4974V8.85948H21.3834V14.6986H28.6017V18.4661H21.3743V27.0186H16.4072V4.94531Z" fill="#111111"/>
<path d="M7.90415 12.1685C7.90415 13.5527 7.90415 15.2393 6.00845 15.9268C7.94972 16.596 7.90415 18.0168 7.90415 19.5018V25.0018C7.90415 26.0468 8.32339 26.6793 9.07073 26.8352C9.23494 26.8909 9.40795 26.9157 9.58111 26.9085H11.4039V30.5752H8.3963C5.1882 30.5752 3.4201 28.7418 3.4201 25.341V18.8327C3.39734 18.4985 3.25086 18.1851 3.00958 17.9543C2.76829 17.7235 2.44973 17.5921 2.11681 17.586H1.33301V14.3685H2.11681C2.45638 14.364 2.78119 14.2282 3.02386 13.9892C3.26652 13.7503 3.40842 13.4265 3.4201 13.0852V6.48516C3.4201 3.13933 5.15174 1.3335 8.3963 1.3335H11.4312V4.94516H9.60845C9.43508 4.94567 9.26287 4.97351 9.09807 5.02766C8.35073 5.22016 7.93149 5.8435 7.93149 6.861L7.90415 12.1685Z" fill="#111111"/>
</svg>
