<svg width="20" height="20" viewBox="0 0 20 20" fill="none" xmlns="http://www.w3.org/2000/svg">
<g clip-path="url(#clip0_1_1049)">
<path d="M14.5 1H5.5C3.01472 1 1 3.01472 1 5.5V14.5C1 16.9853 3.01472 19 5.5 19H14.5C16.9853 19 19 16.9853 19 14.5V5.5C19 3.01472 16.9853 1 14.5 1Z" stroke="#5B5B5B" stroke-width="2" stroke-linecap="round" stroke-linejoin="round"/>
<path d="M13.9567 9.41327C14.0801 10.2455 13.938 11.0955 13.5505 11.8423C13.163 12.5891 12.5499 13.1947 11.7984 13.5729C11.0468 13.9512 10.1952 14.0829 9.36452 13.9492C8.53386 13.8155 7.7665 13.4233 7.17158 12.8284C6.57665 12.2335 6.18447 11.4661 6.05081 10.6355C5.91714 9.80482 6.0488 8.95316 6.42706 8.20164C6.80532 7.45012 7.41092 6.83701 8.15772 6.44951C8.90452 6.06201 9.75449 5.91986 10.5867 6.04327C11.4357 6.16915 12.2216 6.56473 12.8284 7.17158C13.4353 7.77842 13.8308 8.56434 13.9567 9.41327Z" stroke="#5B5B5B" stroke-width="2" stroke-linecap="round" stroke-linejoin="round"/>
<path d="M15 5H15.0096" stroke="#5B5B5B" stroke-width="2" stroke-linecap="round" stroke-linejoin="round"/>
</g>
<defs>
<clipPath id="clip0_1_1049">
<rect width="20" height="20" fill="white"/>
</clipPath>
</defs>
</svg>
