<svg width="20" height="20" viewBox="0 0 20 20" fill="none" xmlns="http://www.w3.org/2000/svg">
<path d="M20 2.00897C19.1294 2.61128 18.1656 3.07195 17.1455 3.37324C16.5979 2.75576 15.8703 2.3181 15.0609 2.11947C14.2516 1.92083 13.3995 1.9708 12.6201 2.26261C11.8406 2.55442 11.1713 3.07399 10.7027 3.75105C10.2341 4.42812 9.98882 5.23001 10 6.04827V6.93995C8.40239 6.98058 6.81934 6.63305 5.39183 5.92829C3.96431 5.22354 2.73665 4.18345 1.81818 2.90065C1.81818 2.90065 -1.81818 10.9258 6.36364 14.4925C4.49139 15.739 2.26105 16.364 0 16.2758C8.18182 20.7342 18.1818 16.2758 18.1818 6.02152C18.181 5.77315 18.1566 5.52539 18.1091 5.28143C19.0369 4.38395 19.6917 3.25082 20 2.00897V2.00897Z" fill="#5B5B5B"/>
</svg>
