<svg width="32" height="32" fill="none" xmlns="http://www.w3.org/2000/svg"><path d="M16.407 4.945h14.09V8.86h-9.114v5.84h7.219v3.767h-7.228v8.553h-4.967V4.945Zm-8.503 7.223c0 1.385 0 3.071-1.896 3.759 1.942.669 1.896 2.09 1.896 3.575v5.5c0 1.045.42 1.677 1.167 1.833.164.056.337.08.51.073h1.823v3.667H8.396c-3.208 0-4.976-1.833-4.976-5.234v-6.508a1.342 1.342 0 0 0-.41-.879 1.327 1.327 0 0 0-.893-.368h-.784v-3.217h.784c.34-.005.664-.14.907-.38.243-.239.384-.563.396-.904v-6.6c0-3.346 1.732-5.152 4.976-5.152h3.035v3.612H9.608a1.65 1.65 0 0 0-.51.083c-.747.192-1.167.816-1.167 1.833l-.027 5.308Z" fill="#111"/></svg>